HIERARCHY
ROOT Hips
{
	OFFSET 0.00000 0.00000 0.00000
	CHANNELS 6 Xposition Yposition Zposition Zrotation Yrotation Xrotation 
	JOINT LHipJoint
	{
		OFFSET 0 0 0
		CHANNELS 3 Zrotation Yrotation Xrotation
		JOINT LeftUpLeg
		{
			OFFSET 1.48831 -1.59570 0.95625
			CHANNELS 3 Zrotation Yrotation Xrotation
			JOINT LeftLeg
			{
				OFFSET 2.20856 -6.06797 0.00000
				CHANNELS 3 Zrotation Yrotation Xrotation
				JOINT LeftFoot
				{
					OFFSET 2.62924 -7.22379 0.00000
					CHANNELS 3 Zrotation Yrotation Xrotation
					JOINT LeftToeBase
					{
						OFFSET 0.16802 -0.46163 2.41673
						CHANNELS 3 Zrotation Yrotation Xrotation
						End Site
						{
							OFFSET 0.00000 -0.00000 1.23760
						}
					}
				}
			}
		}
	}
	JOINT RHipJoint
	{
		OFFSET 0 0 0
		CHANNELS 3 Zrotation Yrotation Xrotation
		JOINT RightUpLeg
		{
			OFFSET -1.56796 -1.59570 0.95625
			CHANNELS 3 Zrotation Yrotation Xrotation
			JOINT RightLeg
			{
				OFFSET -2.29239 -6.29829 0.00000
				CHANNELS 3 Zrotation Yrotation Xrotation
				JOINT RightFoot
				{
					OFFSET -2.66963 -7.33475 0.00000
					CHANNELS 3 Zrotation Yrotation Xrotation
					JOINT RightToeBase
					{
						OFFSET -0.18185 -0.49964 2.34359
						CHANNELS 3 Zrotation Yrotation Xrotation
						End Site
						{
							OFFSET -0.00000 -0.00000 1.20477
						}
					}
				}
			}
		}
	}
	JOINT LowerBack
	{
		OFFSET 0 0 0
		CHANNELS 3 Zrotation Yrotation Xrotation
		JOINT Spine
		{
			OFFSET 0.03505 2.15832 -0.34324
			CHANNELS 3 Zrotation Yrotation Xrotation
			JOINT Spine1
			{
				OFFSET -0.01089 2.17963 0.04689
				CHANNELS 3 Zrotation Yrotation Xrotation
				JOINT Neck
				{
					OFFSET 0 0 0
					CHANNELS 3 Zrotation Yrotation Xrotation
					JOINT Neck1
					{
						OFFSET 0.04686 1.69404 0.22159
						CHANNELS 3 Zrotation Yrotation Xrotation
						JOINT Head
						{
							OFFSET 0.00265 1.69305 -0.01513
							CHANNELS 3 Zrotation Yrotation Xrotation
							End Site
							{
								OFFSET -0.00415 1.80215 -0.03034
							}
						}
					}
				}
				JOINT LeftShoulder
				{
					OFFSET 0 0 0
					CHANNELS 3 Zrotation Yrotation Xrotation
					JOINT LeftArm
					{
						OFFSET 3.67184 1.11724 -0.19002
						CHANNELS 3 Zrotation Yrotation Xrotation
						JOINT LeftForeArm
						{
							OFFSET 5.17714 -0.00000 -0.00000
							CHANNELS 3 Zrotation Yrotation Xrotation
							JOINT LeftHand
							{
								OFFSET 3.43679 -0.00000 -0.00000
								CHANNELS 3 Zrotation Yrotation Xrotation
								JOINT LeftFingerBase
								{
									OFFSET 0 0 0
									CHANNELS 3 Zrotation Yrotation Xrotation
									JOINT LeftHandIndex1
									{
										OFFSET 0.57312 -0.00000 -0.00000
										CHANNELS 3 Zrotation Yrotation Xrotation
										End Site
										{
											OFFSET 0.46206 -0.00000 -0.00000
										}
									}
								}
								JOINT LThumb
								{
									OFFSET 0 0 0
									CHANNELS 3 Zrotation Yrotation Xrotation
									End Site
									{
										OFFSET 0.46912 -0.00000 0.46912
									}
								}
							}
						}
					}
				}
				JOINT RightShoulder
				{
					OFFSET 0 0 0
					CHANNELS 3 Zrotation Yrotation Xrotation
					JOINT RightArm
					{
						OFFSET -3.59596 0.95831 -0.26050
						CHANNELS 3 Zrotation Yrotation Xrotation
						JOINT RightForeArm
						{
							OFFSET -5.23908 -0.00000 -0.00000
							CHANNELS 3 Zrotation Yrotation Xrotation
							JOINT RightHand
							{
								OFFSET -3.46485 -0.00000 -0.00000
								CHANNELS 3 Zrotation Yrotation Xrotation
								JOINT RightFingerBase
								{
									OFFSET 0 0 0
									CHANNELS 3 Zrotation Yrotation Xrotation
									JOINT RightHandIndex1
									{
										OFFSET -0.60875 -0.00000 -0.00000
										CHANNELS 3 Zrotation Yrotation Xrotation
										End Site
										{
											OFFSET -0.49079 -0.00000 -0.00000
										}
									}
								}
								JOINT RThumb
								{
									OFFSET 0 0 0
									CHANNELS 3 Zrotation Yrotation Xrotation
									End Site
									{
										OFFSET -0.49829 -0.00000 0.49829
									}
								}
							}
						}
					}
				}
			}
		}
	}
}
MOTION
Frames: 14
Frame Time: .0083333
-3.3026 16.0259 -3.8015 -0.0652 -26.7330 9.6620 0.0000 0.0000 0.0000 -18.8170 4.5011 -24.2893 15.7766 19.5669 77.5655 0.0999 -7.6455 12.8267 0.1718 2.6701 7.3617 0.0000 0.0000 0.0000 23.7424 22.0426 -32.4916 -6.4158 -14.8195 46.6284 -1.2125 -7.8342 -24.9965 -0.1979 -2.8644 7.9015 2.5356 -5.2835 14.1269 3.3788 -6.5420 4.7101 3.1757 -3.2811 -2.7751 3.4942 0.4153 -4.5391 -4.9586 0.4548 0.6960 -2.1574 0.1645 1.0200 -0.0000 0.0000 0.0000 -79.4217 -22.4168 49.3536 15.5565 -24.9156 -3.4570 -0.0000 0.0000 -0.7451 28.5823 11.9757 6.4498 -7.1250 0.0000 -0.0000 1.2628 43.5559 -0.0450 -0.0000 0.0000 0.0000 76.8156 -3.8141 23.9044 -16.6514 26.3960 -3.9311 0.0000 0.0000 7.2858 -24.4493 -6.7652 3.0658 7.1250 -0.0000 -0.0000 1.9745 -37.3978 0.3696
-3.4349 16.1269 -3.6618 0.0476 -26.9915 9.5350 0.0000 0.0000 0.0000 -18.3036 3.5876 -26.3121 16.4686 19.6983 79.6247 0.0215 -6.2031 9.4004 0.1256 2.2846 6.2929 0.0000 0.0000 0.0000 24.2935 21.7193 -30.4489 -5.9478 -14.3775 44.7718 -1.2035 -7.7936 -24.8973 -0.2048 -2.9142 8.0399 2.1060 -4.9572 14.2944 3.1733 -6.1638 4.5733 3.1615 -3.0908 -3.0012 3.3209 0.2373 -4.6347 -4.5827 0.2238 0.9098 -2.0099 0.0523 1.0899 0.0000 -0.0000 0.0000 -77.5648 -21.2455 47.1725 14.6051 -23.5932 -3.0662 -0.0000 -0.0000 0.3792 28.1224 12.2350 6.4619 -7.1250 0.0000 -0.0000 0.8175 43.7918 -0.0244 0.0000 -0.0000 0.0000 75.9619 -2.4930 25.2165 -17.3819 27.3585 -4.2614 0.0000 0.0000 6.8409 -24.0007 -6.7673 3.0034 7.1250 -0.0000 -0.0000 2.3561 -37.3715 0.4426
-3.5676 16.2300 -3.5167 -0.0505 -27.1582 9.5572 0.0000 0.0000 0.0000 -17.5772 2.6288 -28.2855 17.0687 19.7927 81.4010 -0.0035 -4.3967 6.1415 0.0940 1.9772 5.4425 0.0000 0.0000 0.0000 25.0284 21.2765 -28.3641 -5.4426 -13.8656 42.7016 -1.1789 -7.7830 -24.6961 -0.2105 -2.9542 8.1512 1.9225 -4.6854 14.3371 3.0226 -5.8294 4.4433 3.0622 -2.9220 -3.1718 3.1651 0.0724 -4.7338 -4.2187 0.0078 1.0983 -1.8701 -0.0519 1.1547 -0.0000 0.0000 0.0000 -75.7254 -19.9644 45.1585 13.7783 -22.4168 -2.7430 -0.0000 -0.0000 1.1876 27.6858 12.4220 6.4396 -7.1250 0.0000 -0.0000 0.3977 43.9480 -0.0103 -0.0000 0.0000 0.0000 75.0986 -1.1355 26.5307 -18.0263 28.1909 -4.5617 0.0000 0.0000 6.4183 -23.6377 -6.8263 2.9779 7.1250 -0.0000 -0.0000 2.6694 -37.4126 0.4989
-3.7019 16.3326 -3.3664 -0.3491 -27.2190 9.7128 0.0000 0.0000 0.0000 -16.6308 1.6371 -30.2060 17.5778 19.8587 82.9019 -0.0051 -2.4462 3.1188 0.0702 1.7089 4.7018 0.0000 0.0000 0.0000 25.9370 20.6913 -26.2567 -4.9147 -13.2871 40.4531 -1.1451 -7.7529 -24.4058 -0.2216 -3.0303 8.3630 1.9583 -4.4689 14.2569 2.9305 -5.5414 4.3265 2.8979 -2.7771 -3.2750 3.0112 -0.0844 -4.8266 -3.8590 -0.1987 1.2568 -1.7327 -0.1509 1.2104 -0.0000 -0.0000 0.0000 -73.9428 -18.6062 43.2428 13.0371 -21.3415 -2.4668 -0.0000 -0.0000 1.6971 27.2891 12.4862 6.3644 -7.1250 0.0000 -0.0000 0.0257 43.9715 -0.0007 -0.0000 -0.0000 0.0000 74.2484 0.2751 27.7628 -18.5708 28.8819 -4.8218 0.0000 0.0000 6.0541 -23.3247 -6.9579 2.9900 7.1250 -0.0000 -0.0000 2.9468 -37.5354 0.5420
-3.8375 16.4328 -3.2122 -0.7452 -27.1970 9.9512 0.0000 0.0000 0.0000 -15.5783 0.5814 -32.0666 17.9921 19.9031 84.1202 -0.0008 -0.5377 0.3781 0.0541 1.5003 4.1264 0.0000 0.0000 0.0000 26.9080 19.9498 -24.1820 -4.3834 -12.6538 38.0860 -1.1034 -7.6700 -24.0085 -0.2382 -3.1412 8.6721 2.1084 -4.2925 14.0644 2.8751 -5.2942 4.2195 2.7052 -2.6535 -3.3111 2.8563 -0.2348 -4.9030 -3.5077 -0.3975 1.3931 -1.5984 -0.2457 1.2577 -0.0000 -0.0000 0.0000 -72.2274 -17.1902 41.4116 12.3691 -20.3558 -2.2290 -0.0000 -0.0000 1.9095 26.9368 12.4793 6.2661 -7.1250 0.0000 -0.0000 -0.2978 43.9213 0.0079 -0.0000 -0.0000 0.0000 73.4364 1.7284 28.8357 -19.0218 29.4457 -5.0416 0.0000 0.0000 5.7783 -23.0021 -7.1376 3.0194 7.1250 -0.0000 -0.0000 3.2378 -37.7089 0.5818
-3.9756 16.5285 -3.0554 -1.1527 -27.1240 10.1971 0.0000 0.0000 0.0000 -14.4978 -0.4840 -33.8277 18.3013 19.9307 85.0277 0.0039 1.0890 -2.0451 0.0402 1.2939 3.5577 0.0000 0.0000 0.0000 27.8641 19.0515 -22.1466 -3.8680 -11.9826 35.6705 -1.0542 -7.5190 -23.4925 -0.2571 -3.2626 9.0107 2.2633 -4.1368 13.8040 2.8407 -5.0769 4.1276 2.5307 -2.5455 -3.2901 2.6970 -0.3803 -4.9592 -3.1708 -0.5892 1.5178 -1.4684 -0.3367 1.2992 0.0000 -0.0000 0.0000 -70.5845 -15.7375 39.6633 11.7618 -19.4465 -2.0223 -0.0000 -0.0000 1.8193 26.6264 12.4492 6.1683 -7.1250 0.0000 -0.0000 -0.5796 43.8510 0.0164 0.0000 -0.0000 0.0000 72.6741 3.1975 29.6925 -19.4051 29.9190 -5.2314 0.0000 0.0000 5.6012 -22.6085 -7.3187 3.0366 7.1250 -0.0000 -0.0000 3.5907 -37.8781 0.6305
-4.1158 16.6184 -2.8971 -1.5056 -27.0541 10.4051 0.0000 0.0000 0.0000 -13.4669 -1.5185 -35.4706 18.4979 19.9458 85.6045 0.0142 2.2742 -4.1331 0.0267 1.0549 2.8999 0.0000 0.0000 0.0000 28.7379 18.0199 -20.1771 -3.3861 -11.2953 33.2824 -1.0033 -7.2599 -22.8737 -0.2810 -3.4095 9.4211 2.3391 -3.9784 13.5145 2.8105 -4.8688 4.0437 2.4043 -2.4424 -3.2361 2.5317 -0.5229 -4.9911 -2.8479 -0.7762 1.6530 -1.3424 -0.4253 1.3412 0.0000 0.0000 0.0000 -69.0131 -14.2577 38.0001 11.2003 -18.5947 -1.8393 -0.0000 -0.0000 1.4535 26.3428 12.3645 6.0524 -7.1250 0.0000 -0.0000 -0.8302 43.7238 0.0261 0.0000 0.0000 0.0000 71.9757 4.6280 30.3248 -19.7615 30.3540 -5.4103 0.0000 0.0000 5.5106 -22.1704 -7.4984 3.0439 7.1250 -0.0000 -0.0000 3.9828 -38.0416 0.6837
-4.2573 16.7014 -2.7387 -1.7694 -27.0236 10.5662 0.0000 0.0000 0.0000 -12.5329 -2.4944 -37.0034 18.5775 19.9514 85.8378 0.0367 2.9445 -5.8523 0.0134 0.7476 2.0545 0.0000 0.0000 0.0000 29.4836 16.8800 -18.3238 -2.9512 -10.6156 30.9943 -0.9493 -6.8952 -22.1401 -0.3043 -3.5468 9.8050 2.2998 -3.8030 13.2182 2.7740 -4.6539 3.9543 2.3353 -2.3357 -3.1746 2.3566 -0.6625 -4.9979 -2.5388 -0.9577 1.8140 -1.2197 -0.5111 1.3883 -0.0000 -0.0000 0.0000 -67.5056 -12.7568 36.4527 10.6785 -17.7938 -1.6764 -0.0000 -0.0000 0.8250 26.0953 12.2232 5.9203 -7.1250 0.0000 -0.0000 -1.0403 43.5390 0.0375 -0.0000 -0.0000 0.0000 71.3444 5.9676 30.7388 -20.1283 30.7966 -5.5969 0.0000 0.0000 5.4766 -21.7027 -7.6478 3.0320 7.1250 -0.0000 -0.0000 4.3985 -38.1695 0.7415
-4.3988 16.7765 -2.5807 -1.9263 -27.0472 10.6729 0.0000 0.0000 0.0000 -11.7337 -3.4019 -38.4288 18.5400 19.9488 85.7278 0.0733 3.1048 -7.2102 0.0029 0.3454 0.9491 0.0000 0.0000 0.0000 30.0770 15.6435 -16.6294 -2.5722 -9.9681 28.8734 -0.8913 -6.4359 -21.2881 -0.3196 -3.6338 10.0486 2.1345 -3.6151 12.9406 2.7255 -4.4369 3.8487 2.3272 -2.2277 -3.1314 2.1670 -0.7935 -4.9716 -2.2480 -1.1260 2.0066 -1.1006 -0.5904 1.4412 0.0000 0.0000 0.0000 -66.0634 -11.2322 34.9674 10.1831 -17.0255 -1.5281 -0.0000 -0.0000 0.0340 25.8161 12.0922 5.7867 -7.1250 0.0000 -0.0000 -1.2797 43.3630 0.0517 0.0000 0.0000 0.0000 70.7653 7.1902 31.0043 -20.5307 31.2764 -5.8044 0.0000 0.0000 5.4220 -21.2422 -7.7547 3.0025 7.1250 -0.0000 -0.0000 4.8042 -38.2515 0.8006
-4.5386 16.8430 -2.4230 -1.9850 -27.1309 10.7244 0.0000 0.0000 0.0000 -11.0862 -4.2260 -39.7423 18.3866 19.9375 85.2781 0.1212 2.8320 -8.2516 0.0004 -0.1231 -0.3382 0.0000 0.0000 0.0000 30.5199 14.3381 -15.1130 -2.2537 -9.3756 26.9774 -0.8329 -5.8807 -20.3487 -0.3287 -3.6846 10.1910 1.8847 -3.4135 12.6979 2.6499 -4.2099 3.7225 2.3412 -2.1141 -3.1254 1.9846 -0.9217 -4.8954 -1.9746 -1.2900 2.2191 -0.9883 -0.6675 1.4928 0.0000 0.0000 0.0000 -64.6677 -9.6944 33.5318 9.7107 -16.2857 -1.3927 -0.0000 0.0000 -0.8138 25.4729 11.9991 5.6562 -7.1250 0.0000 -0.0000 -1.5811 43.2220 0.0694 0.0000 0.0000 0.0000 70.2499 8.2758 31.1536 -20.9696 31.7929 -6.0339 0.0000 0.0000 5.3279 -20.8460 -7.8116 2.9627 7.1250 -0.0000 -0.0000 5.1497 -38.2844 0.8544
-4.6755 16.9007 -2.2642 -1.9763 -27.2657 10.7486 0.0000 0.0000 0.0000 -10.5845 -4.9871 -40.9560 18.1211 19.9151 84.4989 0.1745 2.2404 -9.0463 0.0091 -0.6162 -1.6933 0.0000 0.0000 0.0000 30.8330 12.9904 -13.8055 -1.9958 -8.8572 25.3498 -0.7742 -5.2506 -19.3397 -0.3244 -3.6609 10.1246 1.6108 -3.2084 12.4703 2.5453 -3.9795 3.5723 2.3416 -1.9982 -3.1539 1.8040 -1.0459 -4.7500 -1.7062 -1.4486 2.4334 -0.8774 -0.7417 1.5340 0.0000 -0.0000 0.0000 -63.3155 -8.1435 32.0980 9.2675 -15.5857 -1.2710 -0.0000 0.0000 -1.5769 25.0283 12.0606 5.5721 -7.1250 0.0000 -0.0000 -1.9929 43.2392 0.0866 0.0000 -0.0000 0.0000 69.7865 9.2376 31.2533 -21.4305 32.3274 -6.2786 0.0000 0.0000 5.1344 -20.5186 -7.8288 2.9183 7.1250 -0.0000 -0.0000 5.4316 -38.2796 0.9021
-4.8099 16.9494 -2.1028 -1.9409 -27.4500 10.7499 0.0000 0.0000 0.0000 -10.2051 -5.6580 -42.0461 17.7436 19.8775 83.3899 0.2301 1.4245 -9.6969 0.0301 -1.1204 -3.0802 0.0000 0.0000 0.0000 31.0605 11.6477 -12.6737 -1.7951 -8.4256 24.0143 -0.7200 -4.5473 -18.3167 -0.3151 -3.6087 9.9782 1.3614 -3.0011 12.2470 2.4133 -3.7424 3.4110 2.3006 -1.8784 -3.2007 1.6343 -1.1711 -4.5257 -1.4390 -1.6094 2.6321 -0.7681 -0.8167 1.5571 0.0000 -0.0000 0.0000 -62.0026 -6.5864 30.6036 8.8527 -14.9253 -1.1619 -0.0000 0.0000 -2.0620 24.4933 12.2569 5.5244 -7.1250 0.0000 -0.0000 -2.5049 43.3928 0.0994 0.0000 -0.0000 0.0000 69.3786 10.1092 31.3222 -21.8808 32.8420 -6.5211 0.0000 0.0000 4.8519 -20.2853 -7.8155 2.8774 7.1250 -0.0000 -0.0000 5.6292 -38.2493 0.9393
-4.9418 16.9895 -1.9368 -1.9085 -27.6918 10.7403 0.0000 0.0000 0.0000 -9.9390 -6.2598 -42.9808 17.2538 19.8182 81.9473 0.2867 0.4959 -10.3064 0.0536 -1.4942 -4.1098 0.0000 0.0000 0.0000 31.2290 10.3468 -11.6894 -1.6453 -8.0846 22.9713 -0.6705 -3.7912 -17.3052 -0.2993 -3.5177 9.7236 1.1746 -2.7886 12.0032 2.2547 -3.4914 3.2478 2.1950 -1.7517 -3.2443 1.4804 -1.2994 -4.2195 -1.1715 -1.7756 2.8143 -0.6606 -0.8943 1.5612 -0.0000 0.0000 0.0000 -60.7217 -5.0233 29.0433 8.4767 -14.3226 -1.0670 -0.0000 0.0000 -2.1674 23.8984 12.5744 5.5101 -7.1250 0.0000 -0.0000 -3.0911 43.6692 0.1016 -0.0000 0.0000 0.0000 69.0260 10.9118 31.3771 -22.3001 33.3145 -6.7499 0.0000 0.0000 4.5111 -20.1168 -7.7948 2.8439 7.1250 -0.0000 -0.0000 5.7703 -38.2156 0.9678
-5.0728 17.0210 -1.7654 -1.9065 -27.9846 10.7183 0.0000 0.0000 0.0000 -9.7748 -6.7626 -43.7374 16.6503 19.7288 80.1634 0.3421 -0.3938 -10.9167 0.0806 -1.8310 -5.0390 0.0000 0.0000 0.0000 31.3733 9.1380 -10.7891 -1.5382 -7.8296 22.1976 -0.6255 -3.0218 -16.3404 -0.2784 -3.3940 9.3776 1.0648 -2.5697 11.7302 2.0809 -3.2239 3.0965 2.0274 -1.6173 -3.2645 1.3372 -1.4309 -3.8545 -0.9047 -1.9473 2.9967 -0.5547 -0.9747 1.5559 -0.0000 -0.0000 0.0000 -59.4779 -3.4593 27.4146 8.1441 -13.7862 -0.9862 -0.0000 0.0000 -1.8259 23.3099 12.9576 5.5185 -7.1250 0.0000 -0.0000 -3.6866 44.0142 0.0898 -0.0000 -0.0000 0.0000 68.7193 11.6707 31.4166 -22.6773 33.7341 -6.9583 0.0000 0.0000 4.1290 -19.9706 -7.7603 2.8091 7.1250 -0.0000 -0.0000 5.8907 -38.1691 0.9950
